<svg xmlns="http://www.w3.org/2000/svg" xmlns:xlink="http://www.w3.org/1999/xlink" viewBox="0 0 299 210"><defs><pattern id="b" patternTransform="translate(-156.70425 -662.52575) scale(37.79528)" xlink:href="#a"/><pattern id="a" patternTransform="scale(10)" patternUnits="userSpaceOnUse"><path d="M0-.5h1v2H0z" style="animation:WOOLNbDD_draw 5000ms linear 0ms forwards" stroke-dasharray="6 8" stroke-dashoffset="7"/></pattern></defs><g transform="translate(0 -87)"><path fill="none" d="M22.161507 172.55112h109.91229v15.16529H22.161507z" style="animation:WOOLNbDD_draw 5000ms linear 0ms forwards" stroke-dasharray="251 253" stroke-dashoffset="252"/><flowroot fill="#fff" fill-opacity="1" stroke="#000" stroke-opacity="1" font-family="sans-serif" font-size="42.66666794" font-stretch="normal" font-style="normal" font-variant="normal" font-weight="700" letter-spacing="0" text-anchor="start" transform="matrix(.27533 0 0 .33198 143.78003 71.980354)" word-spacing="0" writing-mode="lr-tb" style="line-height:1.25;-inkscape-font-specification:'sans-serif, Bold';font-variant-ligatures:normal;font-variant-caps:normal;font-variant-numeric:normal;font-feature-settings:normal;text-align:start" xml:space="preserve"><flowregion fill="#fff" fill-opacity="1" stroke="#000" stroke-opacity="1"><path d="M44.446712 176.49757h572.49353v75.290588H44.446712z" style="animation:WOOLNbDD_draw 5000ms linear 0ms forwards" stroke-dasharray="1296 1298" stroke-dashoffset="1297"/></flowregion><flowpara fill="#fff" fill-opacity="1" stroke="#000" stroke-opacity="1" font-family="HP Simplified" font-stretch="normal" font-style="normal" font-variant="normal" font-weight="700" style="-inkscape-font-specification:'HP Simplified Bold'">info@pulifemocleaning.it</flowpara></flowroot></g><path fill="#0567b1" d="M45.336089 56.86193l4.00787-7.92063-.71524-2.82173 6.0571-7.0145 1.49546-.87904 4.34863.0591 3.61132-1.43908 1.23089.11835-2.6706 16.11768-1.13246 2.57334-1.60521.0777-1.08109.3041-4.82282-.14457-3.25047.53437-2.71917 1.13858zm-1.0845 37.39978l4.02426 2.20558 4.39101-.0395 3.56391-.92893 1.74905 1.48703 2.99379.81324 4.95201-.2579 1.80836-.98522 1.3372-4.23117-1.74286-14.61608-1.67153-8.37971-.72834-1.02577-2.76139-1.08162-1.68389-1.57467-.8047-5.04104-4.16327-.25162-3.01698.38816-3.38769.77325-1.20717 3.61439.54927 1.54898L48.572249 68l.008.42514.48766.79407.50382 1.64436-.1629 1.37351-.35725 1.09367-.25468 1.51702-1.40728.54658-1.83781.27123-2.26109 12.80199-.12608 3.31029.64734 1.73615z" style="animation:WOOLNbDD_draw 5000ms linear 0ms forwards" stroke-dasharray="180 182" stroke-dashoffset="181"/><path fill="#c52f0b" stroke="#000" stroke-width=".26458332" d="M36.014249 46.26493l1.64839 14.61788.9992.35904.88316-.77288-1.60295-14.71325zm-8.536747-11.55704l.838988 1.87427 5.469781-.62383-1.167857-1.7735z" style="animation:WOOLNbDD_draw 5000ms linear 0ms forwards" stroke-dasharray="49 51" stroke-dashoffset="50"/><path fill="#c52f0b" d="M44.461939 32.89516l-.39101 1.80314-5.75142.72369.90525-2.09645z" style="animation:WOOLNbDD_draw 5000ms linear 0ms forwards" stroke-dasharray="16 18" stroke-dashoffset="17"/><path fill="#bdbdbd" d="M32.517647 33.85596l2.924142 4.66995.61611 7.54917 2.02587-.32206-.99672-7.6837 2.17043-5.14487z" style="animation:WOOLNbDD_draw 5000ms linear 0ms forwards" stroke-dasharray="36 38" stroke-dashoffset="37"/><path fill="#0567b1" d="M85.346149 41.01846l3.16285 15.06817.49613 2.1258 2.10856.0625.55815.31261 3.78302-.31261 2.54268.18757 3.907061 1.12542-.74421-.68776.47797-.54754 2.53333.96061.29687.0246-4.09311-7.94049.78494-2.50093-5.519481-5.81469-1.42639-.87533-2.6047.31262-3.4109-.56271z" style="animation:WOOLNbDD_draw 5000ms linear 0ms forwards" stroke-dasharray="66 68" stroke-dashoffset="67"/><path fill="#0567b1" stroke="#000" stroke-linecap="round" stroke-linejoin="round" stroke-width=".60575891" opacity=".98000004" d="M79.739832 30.30452a12.167066 12.062729 0 1124.334132 0 12.167066 12.062729 0 11-24.334132 0" style="animation:WOOLNbDD_draw 5000ms linear 0ms forwards" stroke-dasharray="77 79" stroke-dashoffset="78"/><path fill="#0567b1" d="M86.300399 70.37724l-3.24507 19.01064.43852 4.68634.35082 1.94529 2.28033 1.41473h3.85901l3.06967-.17684 1.40328-1.32632 1.31557.70738 5.019221.26525-.69903-.65914-.394541-.52248-.59287-.76365.16084-.53053-.48772-1.41474.7654-.44211 1.315581.17685 1.49098-5.30531 1.9295-3.00633 1.84181-1.2379-4.29754-19.45275-2.368031-.88421-4.64836-.26527-3.59589.0884-.78935 3.53686-.0877 1.32633-1.31558 1.50316-2.01721.70739z" style="animation:WOOLNbDD_draw 5000ms linear 0ms forwards" stroke-dasharray="103 105" stroke-dashoffset="104"/><path fill="#c52f0b" d="M82.002869 64.22793l.35082 1.76842-.61393 3.53686.43852 1.14949 1.57869.0884 3.85901-.97264 2.28033-1.23791.70163-1.68.52623-3.89055 1.22787-.26527 4.38525-.17684 3.24506.61895 1.885661 1.10527 1.53484 6.23372 1.40328-.26526 1.05245-1.94528-.78934-4.59792.70164.70736.35082-.26525-1.84181-4.77477-1.05245-.70738-1.49098-.17684h-.52623l.52623 1.06106-2.631151-.97263-4.38524-.44211-2.71884.44211-.87706-.26528h-2.19262l-.35082 2.21056-1.31556 1.94527-3.15738 1.68001z" style="animation:WOOLNbDD_draw 5000ms linear 0ms forwards" stroke-dasharray="81 83" stroke-dashoffset="82"/><path fill="#bcd9f8" d="M91.547819 23.51188l9.240481-.68775-.62017-2.50095-1.426391-1.37552-1.86049-.5627-1.8605.12504-1.98454.87533-1.05428 1.25047-.62018 1.50057-.12402 1.25047z" style="animation:WOOLNbDD_draw 5000ms linear 0ms forwards" stroke-dasharray="25 27" stroke-dashoffset="26"/><path fill="#fff" d="M91.299749 23.69945l.062 2.93861.68218 2.93861.99227 1.18795 2.10857 1.12541h1.67445l2.48067-1.43803.992271-2.75104.49613-2.87608-.24807-1.313zm15.744111 58.53923l-1.22787.35368-1.31557 1.06107-1.14017 1.32632-.87704 1.50317-.48238 1.45895-.96476 3.93477-.21092.26727-1.010691-.47062-1.19237.58655.40096 2.0838-2.11328.22596 1.40745.68476 1.31558.22696.916711 1.1996 1.30516.62874 1.72485.17784 1.22787-.30556h4.07826l1.84181.0443 2.71885.26526.61393-.30947.26311-.66316 1.00861.70737.65779.22106 2.41189-.17685.74548-.66315.30697.44209 1.40328.22106 1.7541-.0442-.57009-1.06105-1.18401.17683-1.05247-.3979.96476-1.23789-1.66638.0442-.6578.57475-.74549-.30948-1.00861-1.1937-.61393-1.23789-.74549-2.38739-.39467-1.50316.0438-1.59159-.65779-2.07791-.96474-1.28212-.96476-.84-1.0963.30948h-1.05247l-1.62253-.17685-1.05247-.53053z" style="animation:WOOLNbDD_draw 5000ms linear 0ms forwards" stroke-dasharray="106 108" stroke-dashoffset="107"/><g><path fill="#0064af" stroke="#000" stroke-linecap="round" stroke-linejoin="round" stroke-width=".60000002" opacity=".98000004" d="M45.1388604 25.90327624a13.040406 12.750048-1.09 1126.0760926-.49613376 13.040406 12.750048-1.09 11-26.0760926.49613376" style="animation:WOOLNbDD_draw 5000ms linear 0ms forwards" stroke-dasharray="82 84" stroke-dashoffset="83"/><path fill="#0567b1" stroke="#000" stroke-linecap="round" stroke-linejoin="round" stroke-width=".64999998" d="M55.474559 38.63049c-2.11403 1.15446-4.75542 5.012-7.18919 7.55725m1.25856 2.79255l-1.89032-3.95722c-1.6208-3.43286-2.99154-3.95109-4.37036-4.56348-2.2198-.88049-3.96437-.003-5.56357 1.41265l1.41517 13.33204c1.8664 1.03883 3.89783 1.73127 6.13648 1.9888m7.62851-11.18073l-2.57298 9.77774" style="animation:WOOLNbDD_draw 5000ms linear 0ms forwards" stroke-dasharray="58 60" stroke-dashoffset="59"/><path fill="none" stroke="#000" stroke-linecap="round" stroke-linejoin="round" stroke-width=".64999998" d="M48.922819 62.13325c-2.95076 9.16611-4.6476 18.44745-5.86093 27.77322-.0157 2.32013-.005 4.63655 4.69379 6.29981 1.6031.30657 3.1982.19261 4.79421.12664 2.28633-.45489 3.47127-.88885 3.2425-1.29591" style="animation:WOOLNbDD_draw 5000ms linear 0ms forwards" stroke-dasharray="46 48" stroke-dashoffset="47"/><path fill="#0567b1" stroke="#000" stroke-linecap="round" stroke-linejoin="round" stroke-width=".32617784" opacity=".98000004" d="M92.8897742 27.14375a2.5889018 2.677985 0 115.1778036 0 2.5889018 2.677985 0 11-5.1778036 0" style="animation:WOOLNbDD_draw 5000ms linear 0ms forwards" stroke-dasharray="17 19" stroke-dashoffset="18"/><path fill="#bcd9f8" d="M47.791859 83.80226c.30589-2.81229.20698-4.41397.67331-7.22932.37602-2.68217.49312-5.27254 1.23241-8.08352.17848-.6879.2268-1.37333.0636-2.05473-.19869-.20854-.39313-.38453-.5132.01-1.00272 3.26016-2.22712 6.49295-2.79111 9.80731-.2792 2.21285-.65306 4.56115-.82629 6.77198-.33968 2.02878-.17617 3.78946.0131 5.63066.21954.85243.75485 1.15518 1.49131 1.10774l.65281-.81437z" style="animation:WOOLNbDD_draw 5000ms linear 0ms forwards" stroke-dasharray="50 52" stroke-dashoffset="51"/><path fill="none" stroke="#000" stroke-linecap="round" stroke-width=".34999999" d="M48.512749 57.41584c-.56754 3.06675.092 3.35812.2716 4.34236" style="animation:WOOLNbDD_draw 5000ms linear 0ms forwards" stroke-dasharray="5 7" stroke-dashoffset="6"/></g><g><path fill="#fff" stroke="#000" stroke-linecap="round" stroke-linejoin="round" stroke-width=".64999998" d="M54.372429 12.730889c1.78455-.19946 3.74574.075 5.01252 3.970441.37742 2.09832.26773 4.20589.12007 6.31419-.26795 2.11382-.82343 4.20627-3.7541 4.93579l-2.61138.12227c-3.19339-.11498-4.18576-1.46096-4.85356-3.24743-.25785-1.30196-.24309-2.60909-.14712-3.91778.41525-3.01069 1.57648-6.03597 3.78114-7.3322.61956-.34358 1.3025-.667361 2.45243-.845281z" style="animation:WOOLNbDD_draw 5000ms linear 0ms forwards" stroke-dasharray="45 47" stroke-dashoffset="46"/><path fill="#fff" stroke="#000" stroke-linecap="round" stroke-linejoin="round" stroke-width=".34999999" d="M47.047959 62.13014c.56439 2.22366 1.81459 4.3737 1.48665 5.90064.88355 1.16101 1.41996 3.49281.43726 5.27203l-.11967 1.40436c-1.63877.6697-3.26996 1.08827-5.69055.11521l-.11419-1.52184c-.82479-1.19077-1.19225-2.37429-.0627-4.96566 1.08592-.47625 1.58149-1.12041 1.80497-2.27005l-.0139-2.19242c-.26305-.65024-.39286-1.09747-.29378-1.79229.54024.15491 1.51044.33826 2.56595.0498z" style="animation:WOOLNbDD_draw 5000ms linear 0ms forwards" stroke-dasharray="36 38" stroke-dashoffset="37"/><path stroke="#000" stroke-linecap="round" stroke-linejoin="round" stroke-width=".34999999" d="M44.712919 60.82969l-.2815 1.278c.56638.42096 1.3847.55564 2.71891.10411l-.17738-1.44091c-.84812.34621-1.61708.41964-2.26003.0588z" style="animation:WOOLNbDD_draw 5000ms linear 0ms forwards" stroke-dasharray="8 10" stroke-dashoffset="9"/><path fill="#e5e221" stroke="#000" stroke-linecap="round" stroke-linejoin="round" stroke-width=".26499999" d="M42.609499 69.36699c-.13858.0759-.26122.50224-.35645 1.20565-.0885.44742-.0465.77705.0416 1.13734l.24418.75377c-.19953.0414 1.52012.4007 2.07154.50539.90093.11744 1.73667.0506 2.57264-.0155.73295-.15924 1.5551-.23259 2.17423-.50139.19705-.52724.36611-.99489.28-1.51675-.26332-1.24942-.33521-1.12025-.46614-1.56332-.54682.1776-1.96631.29976-2.7178.35207l-1.60456-.0343-1.23907-.14352z" style="animation:WOOLNbDD_draw 5000ms linear 0ms forwards" stroke-dasharray="21 23" stroke-dashoffset="22"/><path fill="#030303" stroke="#000" stroke-linecap="round" stroke-linejoin="round" stroke-width=".32617784" opacity=".98000004" d="M93.766234 27.10977a1.544015 1.5566338 0 113.08803 0 1.544015 1.5566338 0 11-3.08803 0" style="animation:WOOLNbDD_draw 5000ms linear 0ms forwards" stroke-dasharray="10 12" stroke-dashoffset="11"/><path fill="#c52f0b" d="M69.411129 61.744l-2.50364.0476-3.24545-1.68674-1.48942-2.19269-.57814-2.16277-1.46798-.16111-1.26826.40217-4.11693-.29976-3.7701.54425-2.29357 1.15412-.10508.68721-.12465.90022.0177.8268.0329.58991-1.07121.82371-1.16929.63657-1.69429.363-.23619.004.0189.992.35312 1.17467 1.40278-.78276 1.3965-1.11344 1.22397-1.48819.19973.56326 3.93004-.83082 2.73445-.33553 2.03125-.0386 2.13202.29024.48713 3.25137.41474 1.92959 1.97091 1.75823 3.42183 1.02181 2.74612.27857.89214-.3005.21194-1.27994-.47814-2.77898-.16238-1.08379z" style="animation:WOOLNbDD_draw 5000ms linear 0ms forwards" stroke-dasharray="74 76" stroke-dashoffset="75"/><path fill="#fff" stroke="#000" stroke-linecap="round" stroke-linejoin="round" stroke-width=".64999998" d="M125.15166 97.14207c2.84938-.25525 5.98083.0959 8.00351 5.08093.60264 2.68519.42749 5.38223.19172 8.0802-.42784 2.70503-1.31476 5.38271-5.9942 6.31627l-4.16961.15647c-5.09891-.14714-6.68344-1.86957-7.74972-4.1557-.41171-1.66611-.38814-3.33882-.23489-5.01354.66302-3.85274 2.51716-7.72416 6.03735-9.38293.98926-.43967 2.07972-.85402 3.91584-1.0817z" style="animation:WOOLNbDD_draw 5000ms linear 0ms forwards" stroke-dasharray="63 65" stroke-dashoffset="64"/><path fill="#0567b1" stroke="#000" stroke-linecap="round" stroke-linejoin="round" stroke-width=".50030267" d="M125.49802 101.96808c-2.38876.0777-4.38456.90146-5.4831 3.42829-.6543 2.20882-.41713 4.21826.15201 6.40842.95988.83738 2.08842 1.79809 3.63867 1.89563l3.01079-.13881c1.69345-.36571 2.75727-.97187 3.20288-1.81407.98616-1.38927.7127-1.72989.86977-2.4289.22402-1.61385-.076-3.21969-.46224-4.82424-.9491-2.00924-2.79838-2.50425-4.92884-2.52633z" style="animation:WOOLNbDD_draw 5000ms linear 0ms forwards" stroke-dasharray="38 40" stroke-dashoffset="39"/><path stroke="#000" stroke-width=".37165341" d="M126.02105 104.46865c-1.49035-.52654-2.36574.33685-3.21611 1.25683-.76512 1.37434-.90511 2.71593-.74374 4.07613.18354.49272.47613 1.007 1.80305 1.4823 1.38137.39591 2.84682.24634 4.49522-1.09052.43674-.96672.86481-1.91008.39578-2.86299-.58557.22774-1.17821.40797-1.85414.0283-.64792-.23828-.95386-.72438-1.07216-1.21472-.15328-.55512-.0393-1.11432.1921-1.67529z" style="animation:WOOLNbDD_draw 5000ms linear 0ms forwards" stroke-dasharray="24 26" stroke-dashoffset="25"/><path fill="#fff" stroke="#000" stroke-linecap="round" stroke-linejoin="round" stroke-width=".37165341" d="M125.91252 104.39218c.2141-.56594.60054-.93296 1.13241-1.13217l1.12988-.0173c.48799.23281.97236.49058 1.00704.91375.19843.63529.37699 1.28241.0529 2.22902-.076.13305-.15776.43565-.59077.7523-.2096.0558-.43575.18992-.92734.13802-.45265.0662-.86393-.1043-1.18552-.49507-.72186-.53744-.55287-1.52193-.61858-2.38865z" style="animation:WOOLNbDD_draw 5000ms linear 0ms forwards" stroke-dasharray="13 15" stroke-dashoffset="14"/><path fill="#fff" stroke="#000" stroke-linecap="round" stroke-linejoin="round" stroke-width=".57951838" d="M80.100897 152.00054c2.563589-.22552 5.380961.0848 7.200766 4.48904.542196 2.37238.384614 4.75522.172503 7.13889-.384935 2.3899-1.182896 4.75565-5.392996 5.58044l-3.751403.1382c-4.587499-.12998-6.013102-1.65176-6.972435-3.67155-.370416-1.47204-.349208-2.94989-.21133-4.42951.596518-3.4039 2.264692-6.82432 5.431814-8.28985.890035-.38846 1.871128-.75454 3.523088-.95571z" style="animation:WOOLNbDD_draw 5000ms linear 0ms forwards" stroke-dasharray="56 58" stroke-dashoffset="57"/><path fill="#0567b1" stroke="#000" stroke-linecap="round" stroke-linejoin="round" stroke-width=".44605315" d="M80.412514 156.26435c-2.14917.0685-3.944795.79644-4.933151 3.02893-.588676 1.95149-.375292 3.72683.136754 5.66188.863604.7398 1.878955 1.5886 3.27372 1.67476l2.708808-.12261c1.523597-.32312 2.480722-.85864 2.881638-1.60271.887248-1.22747.64122-1.5284.782529-2.14598.201554-1.42583-.06841-2.84458-.415877-4.26223-.853903-1.77518-2.517707-2.21252-4.43448-2.23202z" style="animation:WOOLNbDD_draw 5000ms linear 0ms forwards" stroke-dasharray="34 36" stroke-dashoffset="35"/><path stroke="#000" stroke-width=".33135369" d="M80.883079 158.47362c-1.340867-.46522-2.128457.29761-2.893533 1.11042-.688375 1.21425-.814329 2.39955-.669143 3.6013.165127.4353.428376.88966 1.622205 1.3096 1.242826.3498 2.561285.21764 4.044352-.96351.392942-.85408.778073-1.68752.356087-2.52943-.526834.20119-1.060039.36045-1.668172.0251-.582932-.21053-.858181-.64-.964623-1.07322-.137905-.49046-.03537-.9845.172836-1.48014z" style="animation:WOOLNbDD_draw 5000ms linear 0ms forwards" stroke-dasharray="21 23" stroke-dashoffset="22"/><path fill="#fff" stroke="#000" stroke-linecap="round" stroke-linejoin="round" stroke-width=".33135369" d="M80.785438 158.40606c.192627-.50002.540309-.82427 1.018833-1.0003l1.016559-.0154c.439039.20571.874833.43343.906031.80731.178525.56127.339175 1.13301.0476 1.96935-.0684.11764-.141935.38491-.531515.66468-.188584.0494-.392051.16782-.834335.12193-.407249.0584-.777271-.0922-1.066606-.43737-.649465-.47486-.49742-1.34468-.55654-2.11044z" style="animation:WOOLNbDD_draw 5000ms linear 0ms forwards" stroke-dasharray="11 13" stroke-dashoffset="12"/></g><g stroke="#000" stroke-linecap="round" stroke-linejoin="round"><path fill="#0567b1" stroke-width=".34999999" d="M54.589359 16.50213c-1.49605.0607-2.746.70443-3.434 2.679-.40979 1.72606-.26124 3.29631.0952 5.0078.60116.65436 1.30796 1.4051 2.27886 1.48132l1.88561-.10847c1.0606-.28578 1.72686-.75946 2.00593-1.41759.61763-1.08563.44637-1.35181.54474-1.89804.1403-1.26113-.0476-2.516-.2895-3.76986-.59441-1.5701-1.7526-1.95692-3.08687-1.97417z" style="animation:WOOLNbDD_draw 5000ms linear 0ms forwards" stroke-dasharray="27 29" stroke-dashoffset="28"/><path fill="#fff" stroke-width=".60575891" d="M90.156089 34.27585c3.40161 1.28295 6.86227 1.88121 10.443051 1.0868-1.426991 1.38271-1.515961 3.79064-4.952031 3.63399-2.95359-.3333-4.40753-2.32252-5.49102-4.72079z" style="animation:WOOLNbDD_draw 5000ms linear 0ms forwards" stroke-dasharray="25 27" stroke-dashoffset="26"/><path fill="#fff" stroke-width=".32617784" opacity=".98000004" d="M93.87368926 27.07581a.93124974 1.0067859 0 111.86249948 0 .93124974 1.0067859 0 11-1.86249948 0" style="animation:WOOLNbDD_draw 5000ms linear 0ms forwards" stroke-dasharray="7 9" stroke-dashoffset="8"/><path fill="#0567b1" stroke-width=".60575891" d="M85.806939 40.81263c-1.83823.0429-3.93226.82287-7.01775 4.45857l-2.805 3.41913c-2.00594 3.46667-2.148 5.85726-1.11725 7.88322l2.45961 3.72586c3.17028 4.40023 6.52887 4.90846 10.05847 1.88262 1.43605-1.46451 1.63838-3.08449 1.65589-4.72776" style="animation:WOOLNbDD_draw 5000ms linear 0ms forwards" stroke-dasharray="43 45" stroke-dashoffset="44"/><path fill="#0567b1" stroke-width=".64999998" d="M64.919649 36.98211c1.98105.008 4.25263.79868 7.65023 4.62016l3.09106 3.59582c2.23127 3.66299 2.43288 6.21438 1.3637 8.4002l-2.57382 4.0314c-3.32567 4.76652-6.93328 5.37836-10.79689 2.21759-1.5767-1.53538-1.82757-3.26215-1.87982-5.01761" style="animation:WOOLNbDD_draw 5000ms linear 0ms forwards" stroke-dasharray="47 49" stroke-dashoffset="48"/></g><g><path fill="none" stroke="#000" stroke-linecap="round" stroke-linejoin="round" stroke-width=".64999998" d="M52.581599 33.09507c4.7132-.12544 9.73764.056 9.85361-3.19633m-.86192-.901c1.0282.54455 1.34596 1.26121 1.56689 2.2209m-1.35722 23.77277c.0936-2.64431 4.71737-5.24596 7.6208-7.76823m-4.34276-3.11195c1.22464 1.18903 1.58738 3.01881 1.47833 5.1993" style="animation:WOOLNbDD_draw 5000ms linear 0ms forwards" stroke-dasharray="31 33" stroke-dashoffset="32"/><path fill="#0567b1" stroke="#000" stroke-linecap="round" stroke-linejoin="round" stroke-width=".64999998" d="M35.650719 43.36364l1.00398 10.79876c-1.3048-1.24978-2.818101-2.1893-2.860048-5.31823-.175818-2.03759.678568-3.80191 1.856068-5.48053z" style="animation:WOOLNbDD_draw 5000ms linear 0ms forwards" stroke-dasharray="24 26" stroke-dashoffset="25"/><path fill="none" stroke="#000" stroke-linecap="round" stroke-linejoin="round" stroke-width=".64999998" d="M54.800159 61.94889c-.58237 14.95011-1.05434 29.5838 1.9578 34.23141 1.23012 1.36095 2.77502.97598 4.16587 1.44544l4.79006-.0911c3.53567-1.10833 3.19364-4.27544 3.34844-7.17878-.61385-7.22442-2.45239-14.42557-3.67862-21.63835" style="animation:WOOLNbDD_draw 5000ms linear 0ms forwards" stroke-dasharray="75 77" stroke-dashoffset="76"/><path stroke="#000" stroke-linecap="round" stroke-linejoin="round" stroke-width=".64999998" d="M50.074619 12.780579c.68474-.78972 1.8203-2.00043 3.07331-2.17463 1.31845.0465 2.12234.31751 2.7341.56859-3.24753-.15925-4.8959.64268-5.80742 1.60603z" style="animation:WOOLNbDD_draw 5000ms linear 0ms forwards" stroke-dasharray="13 15" stroke-dashoffset="14"/><path fill="none" stroke="#000" stroke-linecap="round" stroke-linejoin="round" stroke-width=".34999999" d="M35.341129 38.53735l2.38327 22.24382c.61603.57846 1.22002.52394 1.81028-.25223l-2.52981-22.31364 2.22309-5.26969-6.956331.71311zm.71675 7.57746l1.95405-.32757m-2.60316-8.66286c.14722-1.24987.39736-2.91051 1.37758-.0988m-2.655551-2.20019l3.623321-.35931" style="animation:WOOLNbDD_draw 5000ms linear 0ms forwards" stroke-dasharray="75 77" stroke-dashoffset="76"/><path fill="none" stroke="#000" stroke-linecap="round" stroke-linejoin="round" stroke-width=".64999998" d="M39.039799 33.35258l5.79648-.61845-.25223-1.81028-18.041263 1.94035.302584 1.973 5.540032-.70809" style="animation:WOOLNbDD_draw 5000ms linear 0ms forwards" stroke-dasharray="34 36" stroke-dashoffset="35"/><path fill="none" stroke="#000" stroke-linecap="round" stroke-linejoin="round" stroke-width=".34999999" d="M27.286875 34.78499l.832847 1.79923 5.288447-.60879" style="animation:WOOLNbDD_draw 5000ms linear 0ms forwards" stroke-dasharray="8 10" stroke-dashoffset="9"/><path fill="none" stroke="#000" stroke-linecap="round" stroke-linejoin="round" stroke-width=".60575891" d="M88.967229 57.46051c-.13356-2.47227-4.47023-4.82402-7.20907-7.13213m4.06518-2.62537c-1.11546 1.1342-1.41979 2.37706-1.28011 4.41514" style="animation:WOOLNbDD_draw 5000ms linear 0ms forwards" stroke-dasharray="16 18" stroke-dashoffset="17"/><path fill="#0567b1" stroke="#000" stroke-linecap="round" stroke-linejoin="round" stroke-width=".60575891" d="M97.230409 49.21936l2.56024 9.10197" style="animation:WOOLNbDD_draw 5000ms linear 0ms forwards" stroke-dasharray="10 12" stroke-dashoffset="11"/><path fill="none" stroke="#000" stroke-linecap="round" stroke-linejoin="round" stroke-width=".60575891" d="M94.367599 42.32415c1.98216 1.04247 4.5014 4.25077 6.804821 6.58873" style="animation:WOOLNbDD_draw 5000ms linear 0ms forwards" stroke-dasharray="10 12" stroke-dashoffset="11"/><path fill="#0567b1" stroke="#000" stroke-linecap="round" stroke-linejoin="round" stroke-width=".60575891" d="M100.29733 51.60607l1.68437-3.73588c1.44349-3.24051 2.70638-3.74974 3.97509-4.34721 2.04441-.86325 3.67882-.0731 5.18783 1.22265l-.80849 12.15859c-1.71366 1.0051-3.89993 2.16132-5.97281 2.44209" style="animation:WOOLNbDD_draw 5000ms linear 0ms forwards" stroke-dasharray="35 37" stroke-dashoffset="36"/><path fill="none" stroke="#000" stroke-linecap="round" stroke-linejoin="round" stroke-width=".60575891" d="M95.691389 64.13225c.80425 13.97648 1.50045 27.65889-1.21275 32.06064-1.1175 1.29515-2.55794.96248-3.84035 1.42643h-4.44671c-3.3006-.97402-3.03909-3.94315-3.23397-6.65667.44215-6.76986 2.02122-13.53973 3.03184-20.30959" style="animation:WOOLNbDD_draw 5000ms linear 0ms forwards" stroke-dasharray="70 72" stroke-dashoffset="71"/><path fill="#0567b1" stroke="#000" stroke-linecap="round" stroke-linejoin="round" stroke-width=".60575891" d="M112.90572 46.00142l-.74111 10.12083c1.18876-1.19246 2.5765-2.09838 2.56021-5.02644.12721-1.90944-.69678-3.54489-1.8191-5.09439z" style="animation:WOOLNbDD_draw 5000ms linear 0ms forwards" stroke-dasharray="22 24" stroke-dashoffset="23"/><path fill="#e5e221" stroke="#000" stroke-linecap="round" stroke-linejoin="round" stroke-width=".32617784" d="M108.89498 81.7532l.19056-1.24879 3.52544-57.54029c.76225-.67693 1.04809-.96349 1.81035.38424l-3.716 58.88514c-1.3566.29548-1.7138-.0136-1.81035-.4803z" style="animation:WOOLNbDD_draw 5000ms linear 0ms forwards" stroke-dasharray="123 125" stroke-dashoffset="124"/><path fill="#e5e221" stroke="#000" stroke-linecap="round" stroke-linejoin="round" stroke-width=".32617784" d="M106.97545 82.47677c1.67859 1.15399 3.49846 1.31106 5.43107.67243-.34733-1.83133-1.48844-1.26188-2.28678-1.72909-1.18284-.32704-2.21533.1039-3.14429 1.05666z" style="animation:WOOLNbDD_draw 5000ms linear 0ms forwards" stroke-dasharray="13 15" stroke-dashoffset="14"/><path fill="none" stroke="#000" stroke-linecap="round" stroke-linejoin="round" stroke-width=".32617784" d="M111.07257 83.72556c-1.5778 3.38699-.15707 7.02592 1.23867 10.66272-.19554 1.18308-.24292 2.41595-2.00093 3.07395h-2.19149c-.78324-.24586-1.46583-.69466-1.71507-2.01727l.66698-1.2488 1.81035.19212c-.37522.83253-1.19226 1.39335.1511 2.22588.92973-.19021 1.14353-1.24659 1.18285-2.51406-1.1119-3.13797-2.24209-6.27595-1.61979-9.41393l.38113-1.24879m3.52259-.41332c.8913.85901 2.22396 1.53782 2.42549 4.48306-.18341 2.69737-.89801 5.15988 1.34748 8.76233 1.25412.91227 1.89698-.94865 2.82974-1.49434l1.75174-.0679c-.79874 1.011-1.5507 2.09273-2.69499 2.58115l-2.29073.0679c-.41541.0454-1.04468-.34036-1.81912-1.01888-2.09064-3.73587-1.13911-5.50193-1.21273-9.23781.15865-1.83126-1.2048-2.90321-1.68437-3.66795m.53901 8.82583l1.0106-2.37738m-.80848 6.58874c.53679-.25461 1.2639-.36918 2.15597.27169m.87588-8.14659c.57132 2.85864 1.32283 5.5299 3.30134 6.79252m-7.81543 2.03332c3.41806.37628 3.47533.28912 3.89108-.57586" style="animation:WOOLNbDD_draw 5000ms linear 0ms forwards" stroke-dasharray="99 101" stroke-dashoffset="100"/><path fill="none" stroke="#000" stroke-linecap="round" stroke-linejoin="round" stroke-width=".32617784" d="M108.52387 83.35926c-.68912 1.45858-1.72417 2.45216-.87586 5.9774.38878 2.01671 1.15382 4.72889.53899 4.89061m-1.34749-11.68312c-2.13058.49126-3.38345 2.30983-4.44671 4.41514-.81242 2.75833-1.12533 5.81647-3.099231 7.40383l-2.76236.20378c.97315.37236 1.70062.90984 3.1666.95095 1.951081-.26308 2.469341-1.56944 3.049341-2.21196" style="animation:WOOLNbDD_draw 5000ms linear 0ms forwards" stroke-dasharray="36 38" stroke-dashoffset="37"/><path fill="none" stroke="#000" stroke-linecap="round" stroke-linejoin="round" stroke-width=".32617784" d="M108.25437 83.35926c-2.24783.97827-3.93885 2.75178-4.04246 6.7925-.20097.7948-.36864 1.65673-.74113 2.10569" style="animation:WOOLNbDD_draw 5000ms linear 0ms forwards" stroke-dasharray="11 13" stroke-dashoffset="12"/><path fill="none" stroke="#000" stroke-linecap="round" stroke-linejoin="round" stroke-width=".32617784" d="M106.43526 84.71776c-1.14326 1.02819-.69971 3.38953-.87587 5.23022-.135 1.15386-.19661 2.56662-.67374 2.51323m2.08861 4.34721c-2.33067-1.02282-2.25369-2.83878-2.15598-4.21136l-2.02123-.13585c-.17904 2.24097.53836 3.66854 2.15597 4.27929zm.74112-6.65666c-.26504 2.52222-.81299 4.474-1.61699 5.90949m-4.58146-1.0868c-.17209.89744 1.16117 1.8928 2.29072 1.0868m-4.109841-.33963c1.438481 2.11613 4.192901 2.18715 5.592081 1.0868m-6.265821-2.58115l-.53899-1.96982c.76357-.51233 1.527151-.74626 2.290731 0m3.23174 5.1623h4.44895m11.52103-1.35407c1.4506.44074 1.29182.09 2.08861.20377l.539 1.01889c-2.09577-.062-3.13391-.0519-3.4361-.47548m-3.23398-1.42643l1.56275.83283" style="animation:WOOLNbDD_draw 5000ms linear 0ms forwards" stroke-dasharray="56 58" stroke-dashoffset="57"/><path fill="#050505" stroke="#000" stroke-linecap="round" stroke-linejoin="round" stroke-width=".60575891" d="M91.477929 23.34955l10.820511-1.09219-.0674 1.32838-10.712551-.13585z" style="animation:WOOLNbDD_draw 5000ms linear 0ms forwards" stroke-dasharray="24 26" stroke-dashoffset="25"/><path stroke="#000" stroke-linecap="round" stroke-linejoin="round" stroke-width=".60575891" d="M100.24637 17.68203c-.734111-.63943-1.938361-1.60822-3.112521-1.60138-1.20488.21999-1.90722.57889-2.43571.89353 2.96182-.58335 4.58271-.062 5.548231.70784z" style="animation:WOOLNbDD_draw 5000ms linear 0ms forwards" stroke-dasharray="12 14" stroke-dashoffset="13"/><path stroke="#000" stroke-linecap="round" stroke-linejoin="round" stroke-width=".26458332" d="M43.130629 59.56171c-.0495.78623-.43519 1.61386-1.15711 2.48286.91533-.15711 1.26696-1.16321 1.72795-2.0046" style="animation:WOOLNbDD_draw 5000ms linear 0ms forwards" stroke-dasharray="6 8" stroke-dashoffset="7"/><path stroke="#000" stroke-width=".26458332" d="M42.865719 59.19207l-.97652-.20892-.0344-.87341 1.08957-.0609" style="animation:WOOLNbDD_draw 5000ms linear 0ms forwards" stroke-dasharray="3 5" stroke-dashoffset="4"/><path fill="none" stroke="#000" stroke-linecap="round" stroke-linejoin="round" stroke-width=".34999999" d="M49.058999 61.65875c1.73913-.81888 3.79432-.98361 5.6396-1.23259 1.46227.0959 4.00947-.25881 4.87162.37927" style="animation:WOOLNbDD_draw 5000ms linear 0ms forwards" stroke-dasharray="11 13" stroke-dashoffset="12"/><path fill="none" stroke="#000" stroke-linecap="round" stroke-linejoin="round" stroke-width=".34999999" d="M61.324309 55.68987l-1.1633-.0868c-1.41789.21744-1.50264 1.07005-1.37729 2.02277.91651 2.68099 1.44954 5.36927 1.78686 8.06127 1.50207 2.6682 5.98921 3.07326 8.19416 3.29282 1.39016-.0686 1.01846-1.11868 1.01717-1.87072l-.57152-3.32888" style="animation:WOOLNbDD_draw 5000ms linear 0ms forwards" stroke-dasharray="28 30" stroke-dashoffset="29"/><path fill="none" stroke="#000" stroke-linecap="round" stroke-linejoin="round" stroke-width=".34999999" d="M60.164749 57.7085c1.5873 2.2424 2.55177 4.87479 4.98963 6.58459 1.64527.59896 2.95893.35414 4.09091-.58601l.3982-1.96786m-21.21093-4.38844c1.7584-.8068 3.54808-1.42089 5.41565-1.55505 1.94428.0317 4.45564-.11033 5.16055.30119" style="animation:WOOLNbDD_draw 5000ms linear 0ms forwards" stroke-dasharray="26 28" stroke-dashoffset="27"/><path fill="#bcd9f8" d="M47.475499 49.01963c-1.04204-1.17813-1.17443-2.37357-1.70129-3.5615-.60829-1.132-1.11622-2.39157-2.56257-3.0369-.5745-.36657-1.24149-.57678-2.18143-.17632-.33951.14815-.44387.52268-.4901.95316.37978.96158.95951.93506 1.50852 1.06035 1.75124 1.73337 3.51615 4.18597 5.2537 5.20012.24792-.14992.18704-.29397.17317-.43891zm7.52659-1.26847c-1.69839 1.63163-2.22921 4.17727-1.54441 5.26741.12602.1614.30503.32112.45949.21347 1.91848-1.48587 1.72705-3.46958 1.33894-5.48571-.13735-.12315-.1835-.0303-.25402.005zm14.64873.8273c-.21464.19022-.0656.18988-.65643.5772-1.78216 1.31914-3.43414 2.86243-4.86303 4.78991-.50444.69269-.80741 1.39495-.29308 2.13611.38736.17351.6555.49852 1.61608-.0564 1.55984-1.63826 2.6376-3.26735 3.73157-4.89675.59005-.90525.96683-1.69873.8813-2.24997.0934-.58735-.19693-.3694-.41641-.30011z" style="animation:WOOLNbDD_draw 5000ms linear 0ms forwards" stroke-dasharray="56 58" stroke-dashoffset="57"/><path fill="#bcd9f8" opacity=".98000004" d="M67.59750898 45.81893047a.91108668.92391884-1.09 111.82184364-.0346631.91108668.92391884-1.09 11-1.82184364.0346631" style="animation:WOOLNbDD_draw 5000ms linear 0ms forwards" stroke-dasharray="6 8" stroke-dashoffset="7"/><path fill="#bcd9f8" d="M57.330439 69.01587c-.006.71404.0593 1.42673.14959 2.13894.83478 3.941.70734 7.90028 1.06028 11.85044l.78776 7.06382c.11184.43349.21871.86708-.0477 1.30776-.18713.1273-.3582.28023-.83601-.0567-1.24886-1.76713-1.45485-3.5541-1.88027-5.33688-.39193-4.31777-.90031-8.66516-.34901-12.62629.11381-1.4579.14938-3.02673.53685-4.22119.16029-.18812.34361-.27144.57855-.1199zm24.25528-17.36381c.20254.17414.0642.1765.61933.52834 1.6771 1.20243 3.23734 2.61691 4.59735 4.39476.48032.63908.77388 1.29071.30967 1.99326-.35641.16922-.59951.47806-1.50069-.0241-1.47643-1.50494-2.50532-3.0099-3.54926-4.51485-.56353-.83641-.92718-1.57207-.85753-2.08931-.097-.54785.17622-.34911.38113-.28818z" style="animation:WOOLNbDD_draw 5000ms linear 0ms forwards" stroke-dasharray="67 69" stroke-dashoffset="68"/><path fill="#bcd9f8" opacity=".98000004" d="M82.13268323 48.8044a.84562677.86454517 0 111.69125354 0 .84562677.86454517 0 11-1.69125354 0" style="animation:WOOLNbDD_draw 5000ms linear 0ms forwards" stroke-dasharray="6 8" stroke-dashoffset="7"/><path fill="#bcd9f8" d="M95.218479 50.58799c1.60487 1.49628 2.14237 3.86845 1.52614 4.90054-.11409.15323-.27739.30586-.42264.20789-1.80653-1.35601-1.66389-3.21531-1.33932-5.10843.12528-.11767.16976-.0317.23582 0zm6.943351 1.23542c.9462-1.12077 1.04796-2.24153 1.51592-3.36229.5445-1.06989.99362-2.25734 2.32443-2.88682.52665-.35318 1.1419-.5617 2.02122-.20378.31767.13258.42113.48111.47162.88303-.33546.90639-.87391.89191-1.38117 1.01888-1.59453 1.65284-3.18906 3.97882-4.78358 4.95853-.23271-.13585-.17875-.2717-.16844-.40755zm-8.665771 18.84867c.0181.66793-.0299 1.33586-.10105 2.00379-.70513 3.70193-.517 7.40384-.77482 11.10576l-.60637 6.62269c-.0961.40755-.18765.8151.0674 1.22265.1759.11577.33735.25581.7748-.0679 1.12774-1.67549 1.28736-3.35097 1.65068-5.02646.2875-4.04654.68256-8.12287.10106-11.81896-.13133-1.36194-.19203-2.82907-.57268-3.93965-.15205-.17316-.32364-.24785-.539-.1019zm9.238411 15.25815c-.33348-2.62565-.45556-4.86547-.938-7.49111-.39626-2.50268-.55064-4.92405-1.28629-7.54077-.17777-.6404-.2347-1.28081-.0953-1.9212.1807-.19864.35803-.36675.47641 0 .98804 3.03226 2.18131 6.03497 2.76318 9.12575.34336 2.0653.88003 3.42321.82471 5.48851" style="animation:WOOLNbDD_draw 5000ms linear 0ms forwards" stroke-dasharray="109 111" stroke-dashoffset="110"/><path fill="none" stroke="#000" stroke-linecap="round" stroke-linejoin="round" stroke-width=".32617784" d="M89.550959 58.27038l1.07798-.10188c1.31963.1782 1.41332.97438 1.31382 1.86794-.80321 2.52454-1.25041 5.04909-1.51593 7.57364-1.34681 2.52301-5.50365 2.9818-7.54595 3.22643-1.29125-.0395-.96486-1.02847-.97693-1.73208l.47163-3.12455" style="animation:WOOLNbDD_draw 5000ms linear 0ms forwards" stroke-dasharray="26 28" stroke-dashoffset="27"/><path fill="none" stroke="#000" stroke-linecap="round" stroke-linejoin="round" stroke-width=".32617784" d="M90.744889 60.06124c-1.43342 2.12615-2.28197 4.60609-4.51409 6.24911-1.51623.58962-2.7396.38396-3.80665-.47548l-.40425-1.83398m19.522361-4.38986c-1.646011-.72354-3.317651-1.26622-5.053091-1.3585-1.8037.0643-4.13671-.024-4.78359.37358m10.611351 5.7906c-1.01251-1.23186-4.503501-1.79965-6.467951-1.80001-1.35528.11572-3.72528-.17081-4.51408.4415" style="animation:WOOLNbDD_draw 5000ms linear 0ms forwards" stroke-dasharray="36 38" stroke-dashoffset="37"/><path fill="none" stroke="#000" stroke-linecap="round" stroke-linejoin="round" stroke-width=".60575891" d="M101.67714 64.09495c1.50212 6.40761 3.07598 12.04351 4.25441 18.45111" style="animation:WOOLNbDD_draw 5000ms linear 0ms forwards" stroke-dasharray="19 21" stroke-dashoffset="20"/><path fill="none" stroke="#000" stroke-linecap="round" stroke-linejoin="round" stroke-width=".32617784" d="M101.94663 59.74776c-1.64328-1.34693-.19377-1.62873 1.01211-1.2272.67388.22439.94734 1.03586 1.34599 1.09135l1.88649 4.68683c-.539.52639-1.07799-.49277-1.61699-1.56228l-1.07798-1.49436c-.94413-1.34352-.84882-.32921-1.14537-.20377m-.53899-1.22266c.53711 2.12888 1.03131 4.1959.33687 4.55099m2.82972-.47547c.27206 1.67548.82225 3.35097.60637 5.02645-.38418 1.04861-.98828 1.70923-2.0886 1.49435" style="animation:WOOLNbDD_draw 5000ms linear 0ms forwards" stroke-dasharray="29 31" stroke-dashoffset="30"/><path fill="#bdbdbd" stroke="#000" stroke-linecap="round" stroke-linejoin="round" stroke-width=".34999999" d="M52.203169 57.4413l.13635 2.17343c1.09881-.36317 2.16827-.50857 4.05251-.32693l-.21332-2.24132c-1.19203-.27307-2.45988-.31568-3.97553.39482z" style="animation:WOOLNbDD_draw 5000ms linear 0ms forwards" stroke-dasharray="13 15" stroke-dashoffset="14"/><path fill="#bdbdbd" stroke="#000" stroke-linecap="round" stroke-linejoin="round" stroke-width=".32617784" d="M97.877609 59.79324l-.0881 2.03582c-1.0261-.32024-2.0211-.43724-3.76645-.23378l.15841-2.10071c1.10137-.27668 2.27716-.3391 3.6962.29867z" style="animation:WOOLNbDD_draw 5000ms linear 0ms forwards" stroke-dasharray="12 14" stroke-dashoffset="13"/><path fill="none" stroke="#000" stroke-linecap="round" stroke-linejoin="round" stroke-width=".64999998" d="M44.173719 57.03859c2.02562.24356 4.39297.60566 3.94914.32589" style="animation:WOOLNbDD_draw 5000ms linear 0ms forwards" stroke-dasharray="5 7" stroke-dashoffset="6"/><path fill="#e5e221" stroke="#000" stroke-linecap="round" stroke-linejoin="round" stroke-width=".34999999" d="M46.914759 60.59521l.30701-.47662.86012-.14246.051-.77423c-.36714-.66965-1.09265-.88031-1.78512-1.13329l-2.59754-.009-.84626-.0421.0427 1.23807.83575.84792.88619.36631.14797.3109c.64175.57287 1.91707.23977 2.09821-.18516z" style="animation:WOOLNbDD_draw 5000ms linear 0ms forwards" stroke-dasharray="14 16" stroke-dashoffset="15"/><path fill="none" stroke="#000" stroke-linecap="round" stroke-linejoin="round" stroke-width=".34999999" d="M57.051349 34.63661c.67859-.10502 1.80413.34051 2.04925-.26225" style="animation:WOOLNbDD_draw 5000ms linear 0ms forwards" stroke-dasharray="3 5" stroke-dashoffset="4"/><path stroke="#000" stroke-width=".25999999" d="M54.916929 18.45617c-.93339-.41146-1.48165.26323-2.01421.98214-.47919 1.07396-.56687 2.12233-.4658 3.18525.11494.38503.2982.78691 1.12923 1.15833.86514.30938 1.78293.1925 2.81531-.85218.27352-.75543.54162-1.49261.24786-2.23725-.36673.17796-.73789.3188-1.16123.0221-.40577-.1862-.59738-.56606-.67147-.94923-.096-.43379-.0246-.87077.12031-1.30914z" style="animation:WOOLNbDD_draw 5000ms linear 0ms forwards" stroke-dasharray="17 19" stroke-dashoffset="18"/><path fill="#fff" stroke="#000" stroke-linecap="round" stroke-linejoin="round" stroke-width=".25999999" d="M54.848959 18.39641c.13409-.44224.37611-.72905.70921-.88472l.70763-.0135c.30562.18192.60898.38336.6307.71404.12428.49644.23611 1.00213.0331 1.74184-.0476.10397-.0988.34044-.36999.58787-.13127.0436-.27292.14842-.58078.10786-.28349.0517-.54107-.0815-.74248-.38686-.45209-.41998-.34626-1.1893-.38741-1.86659z" style="animation:WOOLNbDD_draw 5000ms linear 0ms forwards" stroke-dasharray="9 11" stroke-dashoffset="10"/><path fill="none" stroke="#000" stroke-linecap="round" stroke-linejoin="round" stroke-width=".34999999" d="M49.916789 58.87316c-1.92591 1.95443-3.10674 3.32931-5.53641 3.21048-.0674.66958-.0925 1.52737.46211 2.18512 2.5953-1.05485 3.94641-3.24191 5.0743-5.3956z" style="animation:WOOLNbDD_draw 5000ms linear 0ms forwards" stroke-dasharray="17 19" stroke-dashoffset="18"/><path fill="none" stroke="#000" stroke-width=".26458332" d="M42.737969 69.39593c2.21739.46388 4.3267.43617 6.34905.0129m-6.49102 3.06396c2.34326.8048 4.54431.62201 6.68307.007" style="animation:WOOLNbDD_draw 5000ms linear 0ms forwards" stroke-dasharray="14 16" stroke-dashoffset="15"/><path fill="none" stroke="#000" stroke-linecap="round" stroke-linejoin="round" stroke-width=".34999999" d="M44.391269 33.03642l-.40778 1.74071-5.58384.57411" style="animation:WOOLNbDD_draw 5000ms linear 0ms forwards" stroke-dasharray="8 10" stroke-dashoffset="9"/><path stroke="#000" stroke-width=".34999999" d="M26.402324 32.83811l.509214 1.9278 5.513428-.81368.748629-.39229 5.660534-.53294.9974.26457 4.95106-.56671-.31847-1.8369z" style="animation:WOOLNbDD_draw 5000ms linear 0ms forwards" stroke-dasharray="41 43" stroke-dashoffset="42"/><path fill="none" stroke="#000" stroke-linecap="round" stroke-linejoin="round" stroke-width=".60575891" d="M88.842299 35.02302c.76113-.28549 1.40565-.68854 1.28011-1.86793" style="animation:WOOLNbDD_draw 5000ms linear 0ms forwards" stroke-dasharray="3 5" stroke-dashoffset="4"/><path fill="none" stroke="#000" stroke-linecap="round" stroke-linejoin="round" stroke-width=".32617784" d="M90.930909 35.80416c1.2626 1.14861 2.17224 1.03849 3.09922 1.25662m2.96448.06793c.96042-.23614 2.26878.0188 2.82972-.78115" style="animation:WOOLNbDD_draw 5000ms linear 0ms forwards" stroke-dasharray="7 9" stroke-dashoffset="8"/><path fill="#c52f0b" stroke="#000" stroke-linecap="round" stroke-linejoin="round" stroke-width=".32617784" d="M85.540949 23.13613c.0927.39514.81607.55186 1.61699.67925.98294.12592 1.4295-.0727 1.98754-.20378.69705-.4225 1.35596-.87754.90956-2.27549l-.67374-.9849c.54568-2.27162-.16798-2.42721-.94325-2.47926-.72988.0799-1.45978-.0368-2.18967.81508-.96382.89372-.92426 1.45025-1.38117 2.17361" style="animation:WOOLNbDD_draw 5000ms linear 0ms forwards" stroke-dasharray="17 19" stroke-dashoffset="18"/><path fill="none" stroke="#000" stroke-linecap="round" stroke-linejoin="round" stroke-width=".32617784" d="M82.711219 21.23424c-.32637.4981-.26574.99623.0337 1.49435.1774.5921.51883 1.03805.87587 1.35849" style="animation:WOOLNbDD_draw 5000ms linear 0ms forwards" stroke-dasharray="4 6" stroke-dashoffset="5"/><path fill="#c52f0b" stroke="#000" stroke-linecap="round" stroke-linejoin="round" stroke-width=".32617784" d="M82.576459 21.30216c-.9226-.2209-1.84651-.99899-2.93078-.73097-.98787-.01-2.25473.30211-1.74906 2.02155l.87319 1.15471c-.0559.81511-.15648 1.63021 1.01062 2.44531 1.54896.4636 1.91196-.0691 2.42548-.47547l1.34749-1.63021c.93185-.0738 1.95624-.008 2.02124-1.39246.051-1.73526-.71372-2.29999-1.98755-1.9019z" style="animation:WOOLNbDD_draw 5000ms linear 0ms forwards" stroke-dasharray="23 25" stroke-dashoffset="24"/><path fill="none" stroke="#000" stroke-linecap="round" stroke-linejoin="round" stroke-width=".32617784" d="M82.617409 21.38608c-.49145.90436.0406 2.46743.89925 2.65726" style="animation:WOOLNbDD_draw 5000ms linear 0ms forwards" stroke-dasharray="4 6" stroke-dashoffset="5"/><path fill="none" stroke="#000" stroke-linecap="round" stroke-linejoin="round" stroke-width=".60575891" d="M94.720069 96.14812c2.38359 1.28966 3.19772.5157 5.867791.75559m-6.032131-78.4436c-1.6282.69625-2.96384 1.83495-3.1666 4.68682.0643 2.40003-.24496 4.80005 1.48224 7.20007 2.33979 2.13495 4.32911 1.79654 6.13108.13585 1.249871-1.008 1.708841-3.21205 1.886481-5.84156l-.33687-3.73587c-.50268-.86171-1.906281-3.36651-5.996331-2.44531z" style="animation:WOOLNbDD_draw 5000ms linear 0ms forwards" stroke-dasharray="44 46" stroke-dashoffset="45"/><path stroke="#000" stroke-linecap="round" stroke-linejoin="round" stroke-width=".51828718" opacity=".98000004" d="M80.08855759 20.94104a.25239241.25445509 0 11.50478482 0 .25239241.25445509 0 11-.50478482 0M77.93531359 21.91819a.25239241.25445509 0 11.50478482 0 .25239241.25445509 0 11-.50478482 0M78.85622759 24.46032a.25239241.25445509 0 11.50478482 0 .25239241.25445509 0 11-.50478482 0M79.25089559 22.60346a.25239241.25445509 0 11.50478482 0 .25239241.25445509 0 11-.50478482 0M80.06219059 25.47717a.25239241.25445509 0 11.50478482 0 .25239241.25445509 0 11-.50478482 0M80.63224359 23.75293a.25239241.25445509 0 11.50478482 0 .25239241.25445509 0 11-.50478482 0M81.39966859 22.02873a.25239241.25445509 0 11.50478482 0 .25239241.25445509 0 11-.50478482 0M81.92589859 24.96872a.25239241.25445509 0 11.50478482 0 .25239241.25445509 0 11-.50478482 0M82.16707959 23.55399a.25239241.25445509 0 11.50478482 0 .25239241.25445509 0 11-.50478482 0M88.39411459 23.31084a.25239241.25445509 0 11.50478482 0 .25239241.25445509 0 11-.50478482 0M85.60953859 21.71925a.25239241.25445509 0 11.50478482 0 .25239241.25445509 0 11-.50478482 0M88.89840259 21.5424a.25239241.25445509 0 11.50478482 0 .25239241.25445509 0 11-.50478482 0M87.31975859 20.54768a.25239241.25445509 0 11.50478482 0 .25239241.25445509 0 11-.50478482 0M86.85927859 18.80134a.25239241.25445509 0 11.50478482 0 .25239241.25445509 0 11-.50478482 0M88.54761859 19.28764a.25239241.25445509 0 11.50478482 0 .25239241.25445509 0 11-.50478482 0M85.56563859 20.12764a.25239241.25445509 0 11.50478482 0 .25239241.25445509 0 11-.50478482 0M86.96892859 22.42659a.25239241.25445509 0 11.50478482 0 .25239241.25445509 0 11-.50478482 0M83.98694959 21.21082a.25239241.25445509 0 11.50478482 0 .25239241.25445509 0 11-.50478482 0M82.78101659 22.4045a.25239241.25445509 0 11.50478482 0 .25239241.25445509 0 11-.50478482 0M84.86400959 22.73608a.25239241.25445509 0 11.50478482 0 .25239241.25445509 0 11-.50478482 0M83.68000359 23.46558a.25239241.25445509 0 11.50478482 0 .25239241.25445509 0 11-.50478482 0" style="animation:WOOLNbDD_draw 5000ms linear 0ms forwards" stroke-dasharray="2 4" stroke-dashoffset="3"/></g><style data-made-with="vivus-instant">@keyframes WOOLNbDD_draw{to{stroke-dashoffset:0}}@keyframes WOOLNbDD_fade{0%,95.65217391304348%{stroke-opacity:1}to{stroke-opacity:0}}</style></svg>
